<svg width="277" height="277" viewBox="0 0 277 277" fill="none" xmlns="http://www.w3.org/2000/svg">
<path fill-rule="evenodd" clip-rule="evenodd" d="M138.5 28.75L103.008 77.5582C81.9162 106.564 102.636 147.25 138.5 147.25C174.364 147.25 195.084 106.564 173.992 77.5582L138.5 28.75ZM138.5 62.7569L119.184 89.3205C107.705 105.107 118.981 127.25 138.5 127.25C158.019 127.25 169.296 105.107 157.816 89.3205L138.5 62.7569Z" fill="#FF7C33"/>
<path fill-rule="evenodd" clip-rule="evenodd" d="M159.818 58.0654L134.008 93.5581C121.329 110.994 123.759 132.652 135.506 147.154C136.491 147.218 137.49 147.25 138.5 147.25C174.364 147.25 195.084 106.564 173.992 77.5582L159.818 58.0654ZM159.668 92.2774L150.184 105.32C145.512 111.745 144.541 119.222 146.496 125.916C159.807 121.262 166.606 105.32 159.668 92.2774Z" fill="#FF7C33"/>
<path fill-rule="evenodd" clip-rule="evenodd" d="M194.857 190.594C195.314 189.49 195.738 188.375 196.128 187.25L80.8719 187.25C81.2624 188.375 81.6864 189.49 82.1433 190.594C85.2089 197.995 89.7021 204.719 95.3665 210.384C101.031 216.048 107.755 220.541 115.156 223.607C122.557 226.672 130.489 228.25 138.5 228.25C146.511 228.25 154.443 226.672 161.844 223.607C169.245 220.541 175.969 216.048 181.634 210.384C187.298 204.719 191.791 197.995 194.857 190.594ZM60.008 187.25C58.3462 180.728 57.5 174.01 57.5 167.25L219.5 167.25C219.5 174.01 218.654 180.728 216.992 187.25C216.039 190.99 214.818 194.666 213.334 198.247C209.264 208.075 203.297 217.004 195.776 224.526C188.254 232.047 179.325 238.014 169.497 242.084C159.67 246.155 149.137 248.25 138.5 248.25C127.863 248.25 117.33 246.155 107.503 242.084C97.6753 238.014 88.7459 232.047 81.2243 224.526C73.7028 217.004 67.7364 208.075 63.6658 198.247C62.1821 194.666 60.9609 190.99 60.008 187.25Z" fill="#252525"/>
</svg>
